<?xml version="1.0" encoding="UTF-8"?>
<svg width="20px" height="13px" viewBox="0 0 20 13" version="1.1" xmlns="http://www.w3.org/2000/svg" xmlns:xlink="http://www.w3.org/1999/xlink">
    <!-- Generator: Sketch 41.1 (35376) - http://www.bohemiancoding.com/sketch -->
    <title>Page 1</title>
    <desc>Created with Sketch.</desc>
    <defs></defs>
    <g id="Web-Color" stroke="none" stroke-width="1" fill="none" fill-rule="evenodd">
        <g id="Desktop-HD" transform="translate(-354.000000, -1540.000000)" fill="#FFFFFF">
            <path d="M354,1546.12945 C354,1546.27913 354.090753,1546.47741 354.181505,1546.57289 L359.342796,1552.05676 C359.582796,1552.30536 359.974624,1552.33418 360.255054,1552.08214 C360.505376,1551.85504 360.512258,1551.41504 360.28043,1551.16988 L356.137204,1546.77461 L373.354839,1546.77461 C373.710968,1546.77461 374,1546.48558 374,1546.12945 C374,1545.77332 373.710968,1545.48429 373.354839,1545.48429 L356.137204,1545.48429 L360.28043,1541.08902 C360.512258,1540.84386 360.495484,1540.41375 360.255054,1540.17676 C360.00129,1539.92644 359.579785,1539.94837 359.342796,1540.20214 L354.181505,1545.68601 C354.030108,1545.83525 354.00172,1545.97805 354,1546.12945 Z" id="Page-1" transform="translate(364.000000, 1546.128869) scale(-1, 1) translate(-364.000000, -1546.128869) "></path>
        </g>
    </g>
</svg>