<?xml version="1.0" encoding="UTF-8"?>
<svg width="49px" height="49px" viewBox="0 0 49 49" version="1.1" xmlns="http://www.w3.org/2000/svg" xmlns:xlink="http://www.w3.org/1999/xlink">
    <!-- Generator: Sketch 41.1 (35376) - http://www.bohemiancoding.com/sketch -->
    <title>download</title>
    <desc>Created with Sketch.</desc>
    <defs></defs>
    <g id="Symbols" stroke="none" stroke-width="1" fill="none" fill-rule="evenodd">
        <g id="download" fill="#FFFFFF">
            <g>
                <path d="M24.5,48.57 L24.5,48.57 C13.016,48.57 3.133,40.461 0.895,29.199 C-1.348,17.934 4.68,6.66 15.289,2.266 C25.898,-2.129 38.133,1.582 44.512,11.129 C50.891,20.676 49.637,33.402 41.52,41.52 C37.016,46.047 30.887,48.586 24.5,48.57 Z M24.5,2.535 L24.5,2.535 C14.02,2.535 5,9.938 2.957,20.215 C0.91,30.492 6.41,40.785 16.094,44.797 C25.777,48.805 36.941,45.418 42.766,36.707 C48.586,27.992 47.441,16.379 40.031,8.969 C35.922,4.836 30.328,2.52 24.5,2.535 Z" id="Fill-1"></path>
                <path d="M24.5,33.785 L24.5,33.785 C23.918,33.785 23.449,33.316 23.449,32.734 L23.449,9.496 C23.449,8.094 25.551,8.094 25.551,9.496 L25.551,32.734 C25.551,33.316 25.082,33.785 24.5,33.785 Z" id="Fill-2"></path>
                <path d="M24.5,34.938 L24.5,34.938 C23.562,34.938 23.094,33.805 23.758,33.145 L33.738,23.164 C34.73,22.188 36.203,23.66 35.227,24.652 L25.246,34.633 C25.047,34.828 24.777,34.938 24.5,34.938 Z" id="Fill-3"></path>
                <path d="M24.5,34.938 L24.5,34.938 C24.223,34.938 23.953,34.828 23.758,34.629 L13.777,24.648 C12.801,23.656 14.273,22.184 15.266,23.16 L25.246,33.141 C25.91,33.805 25.438,34.938 24.5,34.938 Z" id="Fill-4"></path>
                <path d="M34.734,36.508 L14.266,36.508 C12.863,36.508 12.863,34.406 14.266,34.406 L34.734,34.406 C36.137,34.406 36.137,36.508 34.734,36.508 Z" id="Fill-5"></path>
            </g>
        </g>
    </g>
</svg>