<?xml version="1.0" encoding="UTF-8"?>
<svg width="233px" height="60px" viewBox="0 0 233 60" version="1.1" xmlns="http://www.w3.org/2000/svg" xmlns:xlink="http://www.w3.org/1999/xlink">
    <!-- Generator: Sketch 41.1 (35376) - http://www.bohemiancoding.com/sketch -->
    <title>Group</title>
    <desc>Created with Sketch.</desc>
    <defs></defs>
    <g id="Web-Color" stroke="none" stroke-width="1" fill="none" fill-rule="evenodd">
        <g id="Group" fill="#FFFFFF">
            <circle id="Oval" fill-opacity="0.7" cx="20.008377" cy="36.6932962" r="19.9713427"></circle>
            <polygon id="Triangle" fill-opacity="0.7" points="38.2101071 0.037034269 56.664639 36.946098 19.7555752 36.946098"></polygon>
            <path d="M106.038776,17.4452806 L106.038776,17.3858418 C106.038776,12.8684949 103.601786,8.7375 98.2820153,8.7375 C93.6457908,8.7375 90.4063776,12.4821429 90.4063776,17.0292092 L90.4063776,17.088648 C90.4063776,21.9626276 93.9429847,25.3209184 98.7278061,25.3209184 C101.610587,25.3209184 103.750383,24.1915816 105.236352,22.3489796 L102.650765,20.0605867 C101.402551,21.2196429 100.302934,21.6951531 98.7872449,21.6951531 C96.7663265,21.6951531 95.3397959,20.6252551 94.8940051,18.5746173 L105.979337,18.5746173 C106.009056,18.1585459 106.038776,17.8910714 106.038776,17.4452806 Z M101.640306,15.7512755 L94.8345663,15.7512755 C95.191199,13.7006378 96.4096939,12.3632653 98.2820153,12.3632653 C100.184056,12.3632653 101.372832,13.7303571 101.640306,15.7512755 Z M133.707526,24.9642857 L133.707526,14.5922194 C133.707526,10.7584184 131.686607,8.7375 128.328316,8.7375 C126.158801,8.7375 124.494515,9.62908163 123.097704,11.263648 C122.265561,9.65880102 120.690434,8.7375 118.610077,8.7375 C116.321684,8.7375 114.954592,9.9559949 113.914413,11.2933673 L113.914413,9.03469388 L109.397066,9.03469388 L109.397066,24.9642857 L113.914413,24.9642857 L113.914413,16.0781888 C113.914413,13.9383929 114.954592,12.8387755 116.648597,12.8387755 C118.342602,12.8387755 119.293622,13.9383929 119.293622,16.0781888 L119.293622,24.9642857 L123.810969,24.9642857 L123.810969,16.0781888 C123.810969,13.9383929 124.851148,12.8387755 126.545153,12.8387755 C128.239158,12.8387755 129.190179,13.9383929 129.190179,16.0781888 L129.190179,24.9642857 L133.707526,24.9642857 Z M154.3625,17.0292092 L154.3625,16.9697704 C154.3625,11.65 150.825893,8.7375 147.110969,8.7375 C144.763138,8.7375 143.247449,9.83711735 142.147832,11.3230867 L142.147832,9.03469388 L137.630485,9.03469388 L137.630485,29.7193878 L142.147832,29.7193878 L142.147832,22.8839286 C143.21773,24.1618622 144.703699,25.2614796 147.110969,25.2614796 C150.885332,25.2614796 154.3625,22.3489796 154.3625,17.0292092 Z M149.845153,17.0292092 C149.845153,19.7039541 148.06199,21.4276786 145.951913,21.4276786 C143.841837,21.4276786 142.088393,19.6742347 142.088393,17.0292092 L142.088393,16.9697704 C142.088393,14.3247449 143.841837,12.571301 145.951913,12.571301 C148.06199,12.571301 149.845153,14.3247449 149.845153,16.9697704 L149.845153,17.0292092 Z M171.391709,24.9642857 L171.391709,15.7215561 C171.391709,11.4122449 169.222194,8.85637755 164.288776,8.85637755 C161.584311,8.85637755 159.860587,9.36160714 158.107143,10.1343112 L159.23648,13.5817602 C160.69273,13.0468112 161.911224,12.719898 163.634949,12.719898 C165.893622,12.719898 167.052679,13.7600765 167.052679,15.632398 L167.052679,15.8998724 C165.923342,15.5135204 164.764286,15.2460459 163.159439,15.2460459 C159.385077,15.2460459 156.740051,16.8508929 156.740051,20.3280612 L156.740051,20.3875 C156.740051,23.5377551 159.20676,25.2614796 162.208418,25.2614796 C164.407653,25.2614796 165.923342,24.4590561 167.022959,23.2405612 L167.022959,24.9642857 L171.391709,24.9642857 Z M167.112117,19.3473214 C167.112117,20.9818878 165.685587,22.1409439 163.57551,22.1409439 C162.11926,22.1409439 161.108801,21.4276786 161.108801,20.2091837 L161.108801,20.1497449 C161.108801,18.7232143 162.297577,17.9505102 164.229337,17.9505102 C165.328954,17.9505102 166.339413,18.1882653 167.112117,18.544898 L167.112117,19.3473214 Z M184.081888,24.3104592 L184.081888,20.6846939 C183.428061,21.0413265 182.685077,21.2493622 181.852934,21.2493622 C180.842474,21.2493622 180.396684,20.7441327 180.396684,19.7039541 L180.396684,12.8982143 L184.141327,12.8982143 L184.141327,9.03469388 L180.396684,9.03469388 L180.396684,4.96313776 L175.879337,4.96313776 L175.879337,9.03469388 L173.977296,9.03469388 L173.977296,12.8982143 L175.879337,12.8982143 L175.879337,20.4469388 C175.879337,24.1321429 177.751658,25.2317602 180.515561,25.2317602 C182.03125,25.2317602 183.130867,24.8751276 184.081888,24.3104592 Z M192.314158,7.28125 L192.314158,3.26913265 L187.559056,3.26913265 L187.559056,7.28125 L192.314158,7.28125 Z M192.195281,24.9642857 L192.195281,9.03469388 L187.677934,9.03469388 L187.677934,24.9642857 L192.195281,24.9642857 Z M210.145791,24.9642857 L210.145791,15.7215561 C210.145791,11.4122449 207.976276,8.85637755 203.042857,8.85637755 C200.338393,8.85637755 198.614668,9.36160714 196.861224,10.1343112 L197.990561,13.5817602 C199.446811,13.0468112 200.665306,12.719898 202.389031,12.719898 C204.647704,12.719898 205.80676,13.7600765 205.80676,15.632398 L205.80676,15.8998724 C204.677423,15.5135204 203.518367,15.2460459 201.91352,15.2460459 C198.139158,15.2460459 195.494133,16.8508929 195.494133,20.3280612 L195.494133,20.3875 C195.494133,23.5377551 197.960842,25.2614796 200.9625,25.2614796 C203.161735,25.2614796 204.677423,24.4590561 205.777041,23.2405612 L205.777041,24.9642857 L210.145791,24.9642857 Z M205.866199,19.3473214 C205.866199,20.9818878 204.439668,22.1409439 202.329592,22.1409439 C200.873342,22.1409439 199.862883,21.4276786 199.862883,20.2091837 L199.862883,20.1497449 C199.862883,18.7232143 201.051658,17.9505102 202.983418,17.9505102 C204.083036,17.9505102 205.093495,18.1882653 205.866199,18.544898 L205.866199,19.3473214 Z M106.989796,47.1052296 L106.989796,47.0457908 C106.989796,42.1123724 103.274872,39.1701531 99.6193878,39.1701531 C96.6177296,39.1701531 94.6859694,40.9235969 93.3783163,42.9147959 L93.3783163,39.5267857 L91.9220663,39.5267857 L91.9220663,59.4387755 L93.3783163,59.4387755 L93.3783163,51.4145408 C94.6265306,53.3165816 96.5880102,55.0403061 99.6193878,55.0403061 C103.274872,55.0403061 106.989796,52.038648 106.989796,47.1052296 Z M105.414668,47.1646684 C105.414668,51.2362245 102.769643,53.6434949 99.4707908,53.6434949 C96.3205357,53.6434949 93.2891582,51.0281888 93.2891582,47.134949 L93.2891582,47.0755102 C93.2891582,43.2119898 96.3205357,40.5669643 99.4707908,40.5669643 C102.650765,40.5669643 105.414668,43.1228316 105.414668,47.1052296 L105.414668,47.1646684 Z M123.365179,54.6836735 L123.365179,45.2329082 C123.365179,41.309949 120.928189,39.2890306 117.034949,39.2890306 C114.954592,39.2890306 113.320026,39.8239796 111.65574,40.5966837 L112.190689,41.8746173 C113.5875,41.161352 115.103189,40.6561224 116.945791,40.6561224 C120.066327,40.6561224 121.938648,42.23125 121.938648,45.2923469 L121.938648,45.9461735 C120.482398,45.5598214 119.026148,45.2923469 116.916071,45.2923469 C112.993112,45.2923469 110.288648,47.0755102 110.288648,50.2257653 L110.288648,50.2852041 C110.288648,53.4354592 113.320026,55.0403061 116.143367,55.0403061 C119.026148,55.0403061 120.898469,53.6137755 121.938648,52.1575255 L121.938648,54.6836735 L123.365179,54.6836735 Z M121.968367,49.0072704 C121.968367,51.7711735 119.323342,53.6732143 116.232526,53.6732143 C113.914413,53.6732143 111.834056,52.3952806 111.834056,50.1960459 L111.834056,50.1366071 C111.834056,48.0265306 113.617219,46.6 116.826913,46.6 C118.996429,46.6 120.690434,46.9566327 121.968367,47.2835459 L121.968367,49.0072704 Z M136.768622,40.8938776 L136.768622,39.2890306 C133.766964,39.1701531 131.240816,41.1316327 130.052041,43.8360969 L130.052041,39.5267857 L128.595791,39.5267857 L128.595791,54.6836735 L130.052041,54.6836735 L130.052041,48.4723214 C130.052041,43.5389031 133.113138,40.8938776 136.620026,40.8938776 L136.768622,40.8938776 Z M151.568878,54.6836735 L151.568878,45.2329082 C151.568878,41.309949 149.131888,39.2890306 145.238648,39.2890306 C143.158291,39.2890306 141.523724,39.8239796 139.859439,40.5966837 L140.394388,41.8746173 C141.791199,41.161352 143.306888,40.6561224 145.14949,40.6561224 C148.270026,40.6561224 150.142347,42.23125 150.142347,45.2923469 L150.142347,45.9461735 C148.686097,45.5598214 147.229847,45.2923469 145.11977,45.2923469 C141.196811,45.2923469 138.492347,47.0755102 138.492347,50.2257653 L138.492347,50.2852041 C138.492347,53.4354592 141.523724,55.0403061 144.347066,55.0403061 C147.229847,55.0403061 149.102168,53.6137755 150.142347,52.1575255 L150.142347,54.6836735 L151.568878,54.6836735 Z M150.172066,49.0072704 C150.172066,51.7711735 147.527041,53.6732143 144.436224,53.6732143 C142.118112,53.6732143 140.037755,52.3952806 140.037755,50.1960459 L140.037755,50.1366071 C140.037755,48.0265306 141.820918,46.6 145.030612,46.6 C147.200128,46.6 148.894133,46.9566327 150.172066,47.2835459 L150.172066,49.0072704 Z M179.802296,59.4387755 L179.802296,39.5267857 L178.346046,39.5267857 L178.346046,42.7959184 C177.097832,40.8938776 175.136352,39.1701531 172.104974,39.1701531 C168.44949,39.1701531 164.734566,42.1718112 164.734566,47.1052296 L164.734566,47.1646684 C164.734566,52.0980867 168.44949,55.0403061 172.104974,55.0403061 C175.106633,55.0403061 177.038393,53.2868622 178.346046,51.2956633 L178.346046,59.4387755 L179.802296,59.4387755 Z M178.435204,47.134949 C178.435204,50.9984694 175.403827,53.6434949 172.253571,53.6434949 C169.073597,53.6434949 166.309694,51.0876276 166.309694,47.1052296 L166.309694,47.0457908 C166.309694,42.9742347 168.954719,40.5669643 172.253571,40.5669643 C175.403827,40.5669643 178.435204,43.1822704 178.435204,47.0755102 L178.435204,47.134949 Z M198.020281,54.6836735 L198.020281,39.5267857 L196.564031,39.5267857 L196.564031,48.2940051 C196.564031,51.4442602 194.275638,53.7029337 191.303699,53.7029337 C188.242602,53.7029337 186.489158,51.6522959 186.489158,48.5317602 L186.489158,39.5267857 L185.032908,39.5267857 L185.032908,48.7992347 C185.032908,52.425 187.261862,55.0403061 191.095663,55.0403061 C193.859566,55.0403061 195.553571,53.6434949 196.564031,51.8603316 L196.564031,54.6836735 L198.020281,54.6836735 Z M204.053316,47.6996173 L216.624617,47.6996173 C216.654337,47.4618622 216.654337,47.3727041 216.654337,47.1646684 L216.654337,47.1052296 C216.654337,42.617602 213.949872,39.1701531 209.7,39.1701531 C205.598724,39.1701531 202.507908,42.6770408 202.507908,47.0755102 L202.507908,47.134949 C202.507908,51.8603316 205.955357,55.0403061 209.937755,55.0403061 C212.850255,55.0403061 214.663138,53.8515306 216.208546,52.1872449 L215.198087,51.2956633 C213.949872,52.6330357 212.345026,53.6732143 209.997194,53.6732143 C207.025255,53.6732143 204.320791,51.4739796 204.053316,47.6996173 Z M204.053316,46.3919643 C204.320791,43.0336735 206.638903,40.5075255 209.640561,40.5075255 C213.11773,40.5075255 214.871173,43.3308673 215.079209,46.3919643 L204.053316,46.3919643 Z M209.581122,34.9797194 L211.780357,37.0006378 L213.177168,37.0006378 L210.20523,33.3748724 L209.016454,33.3748724 L206.044515,37.0006378 L207.381888,37.0006378 L209.581122,34.9797194 Z M224.708291,44.2818878 L224.559694,44.4304847 L224.946046,49.2450255 L225.897066,49.2450255 L226.164541,45.530102 C229.61199,45.1140306 232.465051,43.152551 232.465051,39.4376276 C232.465051,36.2279337 229.938903,33.6126276 226.015944,33.6126276 C222.865689,33.6126276 220.84477,35.0391582 219.150765,37.1492347 L220.220663,38.0408163 C221.766071,36.1387755 223.578954,34.9797194 225.956505,34.9797194 C228.987883,34.9797194 230.889923,37.0303571 230.889923,39.4970663 C230.889923,42.3798469 228.63125,44.1927296 224.708291,44.2818878 Z M226.402296,54.6836735 L226.402296,52.1575255 L224.440816,52.1575255 L224.440816,54.6836735 L226.402296,54.6836735 Z" id="empatia-para-quê?"></path>
        </g>
    </g>
</svg>