<?xml version="1.0" encoding="UTF-8"?>
<svg width="315px" height="107px" viewBox="0 0 315 107" version="1.1" xmlns="http://www.w3.org/2000/svg" xmlns:xlink="http://www.w3.org/1999/xlink">
    <!-- Generator: Sketch 41.1 (35376) - http://www.bohemiancoding.com/sketch -->
    <title>Group 5</title>
    <desc>Created with Sketch.</desc>
    <defs>
        <polygon id="path-1" points="104.722877 103.711251 104.722877 0.732206508 0.539818958 0.732206508 0.539818958 103.711251"></polygon>
        <polygon id="path-3" points="0 106.295845 314.062421 106.295845 314.062421 0 0 0"></polygon>
    </defs>
    <g id="Web-Color" stroke="none" stroke-width="1" fill="none" fill-rule="evenodd">
        <g id="Desktop-HD" transform="translate(-939.000000, -2122.000000)">
            <g id="Group-5" transform="translate(939.000000, 2122.000000)">
                <g id="Page-1">
                    <g id="Group-3" transform="translate(209.339544, 0.553814)">
                        <mask id="mask-2" fill="white">
                            <use xlink:href="#path-1"></use>
                        </mask>
                        <g id="Clip-2"></g>
                        <path d="M104.723185,52.2217289 C104.723185,80.6587278 81.4010662,103.711251 52.6315018,103.711251 C23.862707,103.711251 0.539818958,80.6587278 0.539818958,52.2217289 C0.539818958,23.78473 23.862707,0.732206508 52.6315018,0.732206508 C81.4010662,0.732206508 104.723185,23.78473 104.723185,52.2217289" id="Fill-1" fill="#20BAE3" mask="url(#mask-2)"></path>
                    </g>
                    <g id="Group-10" style="mix-blend-mode: multiply;" transform="translate(237.815880, 54.565931)" fill="#6B6B6B">
                        <path d="M46.8595795,3.3828321 C46.8595795,4.99178459 45.5404326,6.29644346 43.9126637,6.29644346 C42.2848948,6.29644346 40.9657478,4.99178459 40.9657478,3.3828321 C40.9657478,1.77387962 42.2848948,0.469220752 43.9126637,0.469220752 C45.5404326,0.469220752 46.8595795,1.77387962 46.8595795,3.3828321" id="Fill-4"></path>
                        <path d="M6.56217901,3.3828321 C6.56217901,4.99178459 5.24303203,6.29644346 3.61526315,6.29644346 C1.98749426,6.29644346 0.668347281,4.99178459 0.668347281,3.3828321 C0.668347281,1.77387962 1.98749426,0.469220752 3.61526315,0.469220752 C5.24303203,0.469220752 6.56217901,1.77387962 6.56217901,3.3828321" id="Fill-6"></path>
                        <path d="M30.0524618,3.38131064 C30.0524618,6.78863838 27.2579328,9.55010292 23.8115266,9.55010292 C20.3643508,9.55010292 17.5698218,6.78863838 17.5698218,3.38131064" id="Fill-8"></path>
                    </g>
                    <mask id="mask-4" fill="white">
                        <use xlink:href="#path-3"></use>
                    </mask>
                    <g id="Clip-12"></g>
                    <polygon id="Fill-11" fill="#2A273E" mask="url(#mask-4)" points="131.711516 56.8481329 166.344896 56.8481329 166.344896 49.2407926 131.711516 49.2407926"></polygon>
                    <polygon id="Fill-13" fill="#2A273E" mask="url(#mask-4)" points="162.496589 64.1553637 182.433872 52.7755433 162.496589 41.3957228"></polygon>
                    <path d="M58.8234115,13.2734396 C58.7933959,13.2734396 58.7633803,13.2719181 58.7325951,13.2681144 C57.186407,13.0870597 55.6602294,12.9721889 54.1948526,12.9242627 C53.7700164,12.9105694 53.4367664,12.5598711 53.4506197,12.1399459 C53.4644731,11.7200207 53.8200424,11.373126 54.2448786,11.4043161 C55.3061993,11.4377884 56.3983052,11.5070152 57.5058038,11.6089535 L56.0696729,8.77065483 C55.8795741,8.39485222 56.0335003,7.93765106 56.4136978,7.74974976 C56.794665,7.56336992 57.2564434,7.71399526 57.4465422,8.0905586 L59.5122309,12.1726574 C59.6384504,12.4229389 59.6153614,12.7211467 59.4529694,12.9501276 C59.3082788,13.1547651 59.0720022,13.2734396 58.8234115,13.2734396" id="Fill-14" fill="#20BAE3" mask="url(#mask-4)"></path>
                    <path d="M54.9271562,5.57024675 C54.6447017,5.57024675 54.3730221,5.41657847 54.2375671,5.14956083 L52.8614674,2.42841518 L51.4845981,5.14956083 C51.295269,5.52536344 50.832721,5.67751025 50.4525234,5.49036967 C50.0715562,5.30170763 49.9176301,4.84526721 50.1077289,4.4694646 L52.1734176,0.38736577 C52.4343224,-0.128411905 53.2893821,-0.128411905 53.5502869,0.38736577 L55.615206,4.4694646 C55.8053048,4.84526721 55.650609,5.30170763 55.2704114,5.49036967 C55.1603543,5.54438179 55.0426008,5.57024675 54.9271562,5.57024675" id="Fill-15" fill="#20BAE3" mask="url(#mask-4)"></path>
                    <path d="M46.9309243,13.2118201 C46.6807943,13.2118201 46.4437481,13.0916241 46.2998272,12.8854652 C46.1389743,12.657245 46.1166551,12.359798 46.2421049,12.111038 L48.3077936,8.02893915 C48.4978924,7.65313653 48.9596708,7.50175046 49.340638,7.6881303 C49.7208355,7.8760316 49.8747617,8.33323276 49.6846629,8.70903537 L48.2408357,11.561788 C49.3483343,11.4704999 50.4458276,11.4126841 51.5210017,11.3891014 C51.955843,11.3868192 52.2983287,11.7139348 52.3075642,12.13386 C52.3167998,12.5537852 51.9797016,12.9014406 51.5548654,12.9105694 C50.0733264,12.9425203 48.5463791,13.0421764 47.0140444,13.2072557 C46.9863377,13.2102987 46.958631,13.2118201 46.9309243,13.2118201" id="Fill-16" fill="#20BAE3" mask="url(#mask-4)"></path>
                    <path d="M90.2301923,106.295845 L85.3207182,106.295845 C85.0290282,106.295845 84.762736,105.945147 84.6326684,105.687258 C84.5018312,105.429369 84.5303075,105.02618 84.7050137,104.795678 C85.4915763,103.76184 86.3312433,103.071854 87.071628,102.504347 C87.4980034,102.177992 87.9005203,101.845551 88.2676341,101.486485 C88.570099,101.19132 89.0572752,101.18143 89.3558919,101.480399 C89.6552782,101.779367 89.6521997,102.254826 89.3497348,102.550752 C88.9164328,102.97448 88.4577329,103.510798 88.0144256,103.850846 C87.698877,104.091999 87.3910248,104.013643 87.0893295,104.774377 L90.2301923,104.774377 C90.6557981,104.774377 90.999823,105.114425 90.999823,105.535111 C90.999823,105.955797 90.6557981,106.295845 90.2301923,106.295845" id="Fill-17" fill="#20BAE3" mask="url(#mask-4)"></path>
                    <path d="M104.95315,106.295845 L100.235314,106.295845 C99.8104781,106.295845 99.4656835,105.955797 99.4656835,105.535111 C99.4656835,105.114425 99.8104781,104.774377 100.235314,104.774377 L103.694034,104.774377 L102.152464,101.612006 C101.959287,101.237725 102.109365,100.684671 102.487254,100.493727 C102.865912,100.3005 103.329999,100.403199 103.523176,100.77672 L105.638891,104.835236 C105.760493,105.071824 105.749718,105.529786 105.610415,105.755724 C105.470342,105.980901 105.221751,106.295845 104.95315,106.295845" id="Fill-18" fill="#20BAE3" mask="url(#mask-4)"></path>
                    <path d="M99.7844645,95.365086 C99.5020101,95.365086 99.2303304,95.2114178 99.0948754,94.9444001 L97.6556661,92.0992548 C97.0838305,93.0045283 96.474283,93.8923049 95.811631,94.7869282 C95.5607314,95.1269763 95.0781729,95.2000068 94.7356873,94.9512467 C94.392432,94.7032474 94.3177778,94.2270279 94.5702167,93.8885013 C95.4891557,92.6477441 96.3018857,91.4214408 97.0522756,90.1403647 C97.1946573,89.8976905 97.4563317,89.7607584 97.7426343,89.7607584 C98.0250888,89.7698872 98.2806062,89.9304021 98.4068256,90.1814443 L100.472514,94.2643039 C100.662613,94.6401065 100.507917,95.0965469 100.12772,95.285209 C100.017663,95.3392211 99.8999091,95.365086 99.7844645,95.365086" id="Fill-19" fill="#20BAE3" mask="url(#mask-4)"></path>
                    <path d="M5.72451298,95.7878259 C5.60906838,95.7878259 5.49131489,95.761961 5.3812577,95.7079489 C5.00106015,95.5192868 4.84636438,95.0628464 5.03646316,94.6870438 L7.10292153,90.6041842 C7.22837133,90.3546635 7.48234945,90.1933879 7.76326465,90.184259 C8.05726357,90.1698051 8.30970243,90.3173875 8.45285374,90.556258 C9.21324885,91.8244016 10.0390626,93.0400546 10.9795513,94.271683 C11.2350686,94.6071667 11.1673411,95.084147 10.827934,95.3374714 C10.4885269,95.5900351 10.0051988,95.5223298 9.75045106,95.1883675 C9.06855828,94.294505 8.4443878,93.4090106 7.86100775,92.5075408 L6.41410207,95.36714 C6.27864707,95.6341577 6.00696744,95.7878259 5.72451298,95.7878259" id="Fill-20" fill="#20BAE3" mask="url(#mask-4)"></path>
                    <path d="M5.57081774,106.295845 L0.769861567,106.295845 C0.50049083,106.295845 0.25113049,105.96873 0.111057707,105.74127 C-0.0282454459,105.513811 -0.037481014,105.136486 0.0871991558,104.900659 L2.24447395,100.771395 C2.4414994,100.399396 2.9055867,100.231273 3.28270573,100.425261 C3.65982476,100.620009 3.80528496,101.255982 3.60825951,101.628742 L2.03975219,104.774377 L5.57081774,104.774377 C5.99565387,104.774377 6.34044842,105.114425 6.34044842,105.535111 C6.34044842,105.955797 5.99565387,106.295845 5.57081774,106.295845" id="Fill-21" fill="#20BAE3" mask="url(#mask-4)"></path>
                    <path d="M19.9427471,106.295845 L15.5758626,106.295845 C15.1510265,106.295845 14.8062319,105.955797 14.8062319,105.535111 C14.8062319,105.114425 15.1510265,104.774377 15.5758626,104.774377 L18.2657218,104.774377 C17.9263147,104.013643 17.5907557,103.957349 17.2459612,103.656098 C16.9034755,103.35789 16.5594506,102.963069 16.2077294,102.618457 C15.9068038,102.322531 15.9044949,101.793821 16.2038813,101.495613 C16.502498,101.197406 16.9904438,101.171541 17.292139,101.467466 C17.621541,101.790778 17.942477,102.058557 18.2641826,102.338507 C18.9860962,102.967634 19.7326379,103.611975 20.5599909,104.710475 C20.7339274,104.940978 20.7608645,105.433933 20.6307969,105.691062 C20.5007293,105.947429 20.2344371,106.295845 19.9427471,106.295845" id="Fill-22" fill="#20BAE3" mask="url(#mask-4)"></path>
                    <path d="M95.1365879,88.6901013 L58.4744609,16.0529335 C56.5596198,15.828517 54.6147631,15.6193151 52.6383515,15.6193151 C50.8220231,15.6193151 49.0310925,15.6839775 47.2655597,15.874161 L10.3717739,89.108505 C13.3764121,94.1209816 17.2638166,97.9276947 21.8269569,102.492099 L83.4497461,102.492099 C88.1329487,97.9276947 92.1019341,93.8646142 95.1365879,88.6901013" id="Fill-23" fill="#20BAE3" mask="url(#mask-4)"></path>
                    <g id="Group-27" mask="url(#mask-4)" fill="#6B6B6B">
                        <g transform="translate(29.245966, 69.019877)">
                            <path d="M43.3729217,0.368499566 C41.7451528,0.368499566 40.4260058,1.67315844 40.4260058,3.28211092 C40.4260058,4.89030267 41.7451528,6.19496154 43.3729217,6.19496154 C45.0006906,6.19496154 46.3198375,4.89030267 46.3198375,3.28211092 C46.3198375,1.67315844 45.0006906,0.368499566 43.3729217,0.368499566" id="Fill-24" style="mix-blend-mode: multiply;"></path>
                            <path d="M3.07552115,0.368499566 C1.44775227,0.368499566 0.128605286,1.67315844 0.128605286,3.28211092 C0.128605286,4.89030267 1.44775227,6.19496154 3.07552115,6.19496154 C4.70329004,6.19496154 6.02243702,4.89030267 6.02243702,3.28211092 C6.02243702,1.67315844 4.70329004,0.368499566 3.07552115,0.368499566" id="Fill-25" style="mix-blend-mode: multiply;"></path>
                            <path d="M23.2715537,2.95971183 C19.8243779,2.95971183 17.0306185,6.08556798 17.0306185,9.12850412 L29.5124889,9.12850412 C29.5124889,6.08556798 26.7187295,2.95971183 23.2715537,2.95971183" id="Fill-26" style="mix-blend-mode: multiply;"></path>
                        </g>
                    </g>
                </g>
            </g>
        </g>
    </g>
</svg>