<?xml version="1.0" encoding="UTF-8"?>
<svg width="290px" height="284px" viewBox="0 0 290 284" version="1.1" xmlns="http://www.w3.org/2000/svg" xmlns:xlink="http://www.w3.org/1999/xlink">
    <!-- Generator: Sketch 41.1 (35376) - http://www.bohemiancoding.com/sketch -->
    <title>Page 1</title>
    <desc>Created with Sketch.</desc>
    <defs>
        <polygon id="path-1" points="118.000884 117.153504 118.000884 0.503804383 -0.000374736842 0.503804383 -0.000374736842 117.153504"></polygon>
        <polygon id="path-3" points="118.001446 0.503804383 0 0.503804383 0 117.153504 118.001446 117.153504 118.001446 0.503804383"></polygon>
        <polygon id="path-5" points="118.001446 116.689986 0 116.689986 0 0.0402858284 118.001446 0.0402858284"></polygon>
        <polygon id="path-7" points="-0.000374736842 116.689986 118.000884 116.689986 118.000884 0.0402858284 -0.000374736842 0.0402858284 -0.000374736842 116.689986"></polygon>
        <polygon id="path-9" points="0 283.812272 289.442989 283.812272 289.442989 0.926110998 0 0.926110998"></polygon>
    </defs>
    <g id="Web-Color" stroke="none" stroke-width="1" fill="none" fill-rule="evenodd">
        <g id="Desktop-HD" transform="translate(-186.000000, -2023.000000)">
            <g id="Page-1" transform="translate(186.000000, 2023.000000)">
                <g id="Group-3" transform="translate(171.442105, 0.422307)">
                    <mask id="mask-2" fill="white">
                        <use xlink:href="#path-1"></use>
                    </mask>
                    <g id="Clip-2"></g>
                    <path d="M59.0010042,0.503341328 C26.4672884,0.503341328 -0.000374736842,26.6678293 -0.000374736842,58.8288859 C-0.000374736842,90.9890164 26.4672884,117.153504 59.0010042,117.153504 C91.5337832,117.153504 118.001446,90.9890164 118.001446,58.8288859 C118.001446,26.6678293 91.5337832,0.503341328 59.0010042,0.503341328 M59.0010042,4.20778532 C89.5158253,4.20778532 114.254078,28.6626723 114.254078,58.8288859 C114.254078,88.9941733 89.5158253,113.44906 59.0010042,113.44906 C28.4852463,113.44906 3.74699368,88.9941733 3.74699368,58.8288859 C3.74699368,28.6626723 28.4852463,4.20778532 59.0010042,4.20778532" id="Fill-1" fill="#C1C1C1" mask="url(#mask-2)"></path>
                </g>
                <g id="Group-6" transform="translate(0.000000, 0.422307)">
                    <mask id="mask-4" fill="white">
                        <use xlink:href="#path-3"></use>
                    </mask>
                    <g id="Clip-5"></g>
                    <path d="M59.0010042,0.503341328 C26.4672884,0.503341328 -0.000374736842,26.6678293 -0.000374736842,58.8288859 C-0.000374736842,90.9890164 26.4672884,117.153504 59.0010042,117.153504 C91.5337832,117.153504 118.001446,90.9890164 118.001446,58.8288859 C118.001446,26.6678293 91.5337832,0.503341328 59.0010042,0.503341328 M59.0010042,4.20778532 C89.5158253,4.20778532 114.254078,28.6626723 114.254078,58.8288859 C114.254078,88.9941733 89.5158253,113.44906 59.0010042,113.44906 C28.4852463,113.44906 3.74699368,88.9941733 3.74699368,58.8288859 C3.74699368,28.6626723 28.4852463,4.20778532 59.0010042,4.20778532" id="Fill-4" fill="#C1C1C1" mask="url(#mask-4)"></path>
                </g>
                <g id="Group-9" transform="translate(0.000000, 167.122286)">
                    <mask id="mask-6" fill="white">
                        <use xlink:href="#path-5"></use>
                    </mask>
                    <g id="Clip-8"></g>
                    <path d="M59.0010042,0.0402858284 C26.4672884,0.0402858284 -0.000374736842,26.2047738 -0.000374736842,58.3658304 C-0.000374736842,90.5259609 26.4672884,116.690449 59.0010042,116.690449 C91.5337832,116.690449 118.001446,90.5259609 118.001446,58.3658304 C118.001446,26.2047738 91.5337832,0.0402858284 59.0010042,0.0402858284 M59.0010042,3.74472982 C89.5158253,3.74472982 114.254078,28.1996168 114.254078,58.3658304 C114.254078,88.5311178 89.5158253,112.986005 59.0010042,112.986005 C28.4852463,112.986005 3.74699368,88.5311178 3.74699368,58.3658304 C3.74699368,28.1996168 28.4852463,3.74472982 59.0010042,3.74472982" id="Fill-7" fill="#C1C1C1" mask="url(#mask-6)"></path>
                </g>
                <g id="Group-12" transform="translate(171.442105, 167.122286)">
                    <mask id="mask-8" fill="white">
                        <use xlink:href="#path-7"></use>
                    </mask>
                    <g id="Clip-11"></g>
                    <path d="M59.0010042,0.0402858284 C26.4672884,0.0402858284 -0.000374736842,26.2047738 -0.000374736842,58.3658304 C-0.000374736842,90.5259609 26.4672884,116.690449 59.0010042,116.690449 C91.5337832,116.690449 118.001446,90.5259609 118.001446,58.3658304 C118.001446,26.2047738 91.5337832,0.0402858284 59.0010042,0.0402858284 M59.0010042,3.74472982 C89.5158253,3.74472982 114.254078,28.1996168 114.254078,58.3658304 C114.254078,88.5311178 89.5158253,112.986005 59.0010042,112.986005 C28.4852463,112.986005 3.74699368,88.5311178 3.74699368,58.3658304 C3.74699368,28.1996168 28.4852463,3.74472982 59.0010042,3.74472982" id="Fill-10" fill="#C1C1C1" mask="url(#mask-8)"></path>
                </g>
                <mask id="mask-10" fill="white">
                    <use xlink:href="#path-9"></use>
                </mask>
                <g id="Clip-14"></g>
                <polygon id="Fill-13" fill="#ED9C9C" mask="url(#mask-10)" points="9.34874737 108.334612 108.654011 108.334612 108.654011 10.1668465 9.34874737 10.1668465"></polygon>
                <polygon id="Fill-15" fill="#FE579D" mask="url(#mask-10)" points="280.095741 266.699593 180.790478 266.699593 230.443109 168.531827 280.095741 168.531827"></polygon>
                <polygon id="Fill-16" fill="#20BAE3" mask="url(#mask-10)" points="108.653636 266.699593 9.34837263 266.699593 59.0010042 168.531827"></polygon>
                <path d="M280.095741,59.2507295 C280.095741,86.3589245 257.865415,108.334612 230.443109,108.334612 C203.020804,108.334612 180.790478,86.3589245 180.790478,59.2507295 C180.790478,32.1425344 203.020804,10.1668465 230.443109,10.1668465 C257.865415,10.1668465 280.095741,32.1425344 280.095741,59.2507295" id="Fill-17" fill="#6A6799" mask="url(#mask-10)"></path>
                <g id="Group-21" style="mix-blend-mode: multiply;" mask="url(#mask-10)" fill="#6B6B6B">
                    <g transform="translate(36.536842, 60.619522)">
                        <path d="M44.1057768,3.56247118 C44.1057768,5.09611099 42.8475979,6.33987806 41.2961874,6.33987806 C39.7447768,6.33987806 38.4865979,5.09611099 38.4865979,3.56247118 C38.4865979,2.02883136 39.7447768,0.785064293 41.2961874,0.785064293 C42.8475979,0.785064293 44.1057768,2.02883136 44.1057768,3.56247118" id="Fill-18"></path>
                        <path d="M5.69525053,3.56247118 C5.69525053,5.09611099 4.43707158,6.33987806 2.88566105,6.33987806 C1.33425053,6.33987806 0.0760715789,5.09611099 0.0760715789,3.56247118 C0.0760715789,2.02883136 1.33425053,0.785064293 2.88566105,0.785064293 C4.43707158,0.785064293 5.69525053,2.02883136 5.69525053,3.56247118" id="Fill-19"></path>
                        <path d="M16.1871326,9.44197946 C16.1871326,6.19410819 18.8505747,3.56117462 22.13608,3.56117462 C25.4206484,3.56117462 28.0850274,6.19410819 28.0850274,9.44197946" id="Fill-20"></path>
                    </g>
                </g>
                <g id="Group-25" style="mix-blend-mode: multiply;" mask="url(#mask-10)" fill="#6B6B6B">
                    <g transform="translate(207.978947, 60.619522)">
                        <path d="M44.1057768,3.56247118 C44.1057768,5.09611099 42.8475979,6.33987806 41.2961874,6.33987806 C39.7447768,6.33987806 38.4865979,5.09611099 38.4865979,3.56247118 C38.4865979,2.02883136 39.7447768,0.785064293 41.2961874,0.785064293 C42.8475979,0.785064293 44.1057768,2.02883136 44.1057768,3.56247118" id="Fill-22"></path>
                        <path d="M5.69525053,3.56247118 C5.69525053,5.09611099 4.43707158,6.33987806 2.88566105,6.33987806 C1.33425053,6.33987806 0.0760715789,5.09611099 0.0760715789,3.56247118 C0.0760715789,2.02883136 1.33425053,0.785064293 2.88566105,0.785064293 C4.43707158,0.785064293 5.69525053,2.02883136 5.69525053,3.56247118" id="Fill-23"></path>
                        <path d="M28.0852147,3.56108201 C28.0852147,6.80895328 25.4208358,9.44188685 22.1353305,9.44188685 C18.8507621,9.44188685 16.18732,6.80895328 16.18732,3.56108201" id="Fill-24"></path>
                    </g>
                </g>
                <g id="Group-29" style="mix-blend-mode: multiply;" mask="url(#mask-10)" fill="#6B6B6B">
                    <g transform="translate(36.536842, 231.023945)">
                        <path d="M44.1057768,3.56247118 C44.1057768,5.09611099 42.8475979,6.33987806 41.2961874,6.33987806 C39.7447768,6.33987806 38.4865979,5.09611099 38.4865979,3.56247118 C38.4865979,2.02883136 39.7447768,0.785064293 41.2961874,0.785064293 C42.8475979,0.785064293 44.1057768,2.02883136 44.1057768,3.56247118" id="Fill-26"></path>
                        <path d="M5.69525053,3.56247118 C5.69525053,5.09611099 4.43707158,6.33987806 2.88566105,6.33987806 C1.33425053,6.33987806 0.0760715789,5.09611099 0.0760715789,3.56247118 C0.0760715789,2.02883136 1.33425053,0.785064293 2.88566105,0.785064293 C4.43707158,0.785064293 5.69525053,2.02883136 5.69525053,3.56247118" id="Fill-27"></path>
                        <path d="M16.1871326,9.44197946 C16.1871326,6.19410819 18.8505747,3.56117462 22.13608,3.56117462 C25.4206484,3.56117462 28.0850274,6.19410819 28.0850274,9.44197946" id="Fill-28"></path>
                    </g>
                </g>
                <g id="Group-33" style="mix-blend-mode: multiply;" mask="url(#mask-10)" fill="#6B6B6B">
                    <g transform="translate(207.978947, 231.023945)">
                        <path d="M44.4781716,3.56247118 C44.4781716,5.09611099 43.2199926,6.33987806 41.6695189,6.33987806 C40.1181084,6.33987806 38.8599295,5.09611099 38.8599295,3.56247118 C38.8599295,2.02883136 40.1181084,0.785064293 41.6695189,0.785064293 C43.2199926,0.785064293 44.4781716,2.02883136 44.4781716,3.56247118" id="Fill-30"></path>
                        <path d="M6.06764526,3.56247118 C6.06764526,5.09611099 4.80946632,6.33987806 3.25899263,6.33987806 C1.70758211,6.33987806 0.449403158,5.09611099 0.449403158,3.56247118 C0.449403158,2.02883136 1.70758211,0.785064293 3.25899263,0.785064293 C4.80946632,0.785064293 6.06764526,2.02883136 6.06764526,3.56247118" id="Fill-31"></path>
                        <path d="M16.5604642,9.44197946 C16.5604642,6.19410819 19.2239063,3.56117462 22.5094116,3.56117462 C25.79398,3.56117462 28.4574221,6.19410819 28.4574221,9.44197946" id="Fill-32"></path>
                    </g>
                </g>
            </g>
        </g>
    </g>
</svg>