<?xml version="1.0" encoding="UTF-8"?>
<svg width="315px" height="105px" viewBox="0 0 315 105" version="1.1" xmlns="http://www.w3.org/2000/svg" xmlns:xlink="http://www.w3.org/1999/xlink">
    <!-- Generator: Sketch 41.1 (35376) - http://www.bohemiancoding.com/sketch -->
    <title>Group 4</title>
    <desc>Created with Sketch.</desc>
    <defs>
        <polygon id="path-1" points="0.542597822 103.88667 105.29199 103.88667 105.29199 0.482996629 0.542597822 0.482996629 0.542597822 103.88667"></polygon>
        <polygon id="path-3" points="104.749547 0.482767468 0 0.482767468 0 52.1846425 0 103.886517 104.749547 103.886517 104.749547 0.482767468"></polygon>
    </defs>
    <g id="Web-Color" stroke="none" stroke-width="1" fill="none" fill-rule="evenodd">
        <g id="Desktop-HD" transform="translate(-549.000000, -2123.000000)">
            <g id="Group-4" transform="translate(549.000000, 2123.000000)">
                <g id="Group-3" transform="translate(209.703380, 0.281105)">
                    <mask id="mask-2" fill="white">
                        <use xlink:href="#path-1"></use>
                    </mask>
                    <g id="Clip-2"></g>
                    <path d="M105.292144,52.184948 C105.292144,80.7385049 81.8432827,103.886899 52.9173711,103.886899 C23.9922333,103.886899 0.542597822,80.7385049 0.542597822,52.184948 C0.542597822,23.6306273 23.9922333,0.482996629 52.9173711,0.482996629 C81.8432827,0.482996629 105.292144,23.6306273 105.292144,52.184948" id="Fill-1" fill="#6A6799" mask="url(#mask-2)"></path>
                </g>
                <g id="Group-10" style="mix-blend-mode: multiply;" transform="translate(238.334469, 54.516058)" fill="#6B6B6B">
                    <path d="M47.1140815,3.14448146 C47.1140815,4.76007195 45.7877657,6.06934955 44.1511508,6.06934955 C42.5145358,6.06934955 41.18822,4.76007195 41.18822,3.14448146 C41.18822,1.52889096 42.5145358,0.218849493 44.1511508,0.218849493 C45.7877657,0.218849493 47.1140815,1.52889096 47.1140815,3.14448146" id="Fill-4"></path>
                    <path d="M6.59768619,3.14448146 C6.59768619,4.76007195 5.27137035,6.06934955 3.63475541,6.06934955 C1.99814047,6.06934955 0.671824628,4.76007195 0.671824628,3.14448146 C0.671824628,1.52889096 1.99814047,0.218849493 3.63475541,0.218849493 C5.27137035,0.218849493 6.59768619,1.52889096 6.59768619,3.14448146" id="Fill-6"></path>
                    <path d="M30.2156261,3.1430301 C30.2156261,6.56441536 27.4059103,9.33727281 23.9407747,9.33727281 C20.4748654,9.33727281 17.6651496,6.56441536 17.6651496,3.1430301" id="Fill-8"></path>
                </g>
                <g id="Group-13" transform="translate(0.000000, 0.281105)">
                    <mask id="mask-4" fill="white">
                        <use xlink:href="#path-3"></use>
                    </mask>
                    <g id="Clip-12"></g>
                    <polygon id="Fill-11" fill="#20BAE3" mask="url(#mask-4)" points="104.749547 103.886517 0 103.886517 52.3747733 0.482614693"></polygon>
                </g>
                <g id="Group-20" transform="translate(28.631089, 66.738019)" fill="#6B6B6B">
                    <path d="M46.5714837,3.6040272 C46.5714837,5.21961769 45.2451679,6.52965916 43.6085529,6.52965916 C41.971938,6.52965916 40.6456222,5.21961769 40.6456222,3.6040272 C40.6456222,1.9884367 41.971938,0.679159107 43.6085529,0.679159107 C45.2451679,0.679159107 46.5714837,1.9884367 46.5714837,3.6040272" id="Fill-14" style="mix-blend-mode: multiply;"></path>
                    <path d="M6.05508836,3.6040272 C6.05508836,5.21961769 4.72877252,6.52965916 3.09215759,6.52965916 C1.45554265,6.52965916 0.129226806,5.21961769 0.129226806,3.6040272 C0.129226806,1.9884367 1.45554265,0.679159107 3.09215759,0.679159107 C4.72877252,0.679159107 6.05508836,1.9884367 6.05508836,3.6040272" id="Fill-16" style="mix-blend-mode: multiply;"></path>
                    <path d="M17.1227839,9.79704771 C17.1227839,6.37566245 19.9324997,3.602805 23.3976353,3.602805 C26.8635446,3.602805 29.6732604,6.37566245 29.6732604,9.79704771" id="Fill-18" style="mix-blend-mode: multiply;"></path>
                </g>
                <polygon id="Fill-21" fill="#2A273E" points="142.176725 72.9913856 136.705865 67.5900426 172.818954 31.9401095 178.289813 37.3422164"></polygon>
                <polygon id="Clip-24" points="0 104.167775 314.995369 104.167775 314.995369 0.763872575 0 0.763872575"></polygon>
                <polygon id="Fill-23" fill="#2A273E" points="131.653484 48.227095 182.725156 48.227095 182.725156 40.5883693 131.653484 40.5883693"></polygon>
                <polygon id="Fill-25" fill="#2A273E" points="131.653484 64.2684191 182.725156 64.2684191 182.725156 56.6296934 131.653484 56.6296934"></polygon>
            </g>
        </g>
    </g>
</svg>